<?xml version="1.0" standalone="no"?>
<!DOCTYPE svg PUBLIC "-//W3C//DTD SVG 20010904//EN"
 "http://www.w3.org/TR/2001/REC-SVG-20010904/DTD/svg10.dtd">
<svg version="1.0" xmlns="http://www.w3.org/2000/svg"
 width="1500.000000pt" height="425.000000pt" viewBox="0 0 1500.000000 425.000000"
 preserveAspectRatio="xMidYMid meet">

<g transform="translate(0.000000,425.000000) scale(0.100000,-0.100000)"
fill="#E50914" stroke="none">
<path d="M6568 3723 l-178 -3 0 -1377 0 -1376 167 6 c91 4 201 7 245 7 l78 0
0 590 0 590 270 0 270 0 0 -590 0 -590 245 0 245 0 0 1375 0 1375 -245 0 -245
0 0 -590 0 -589 -270 -3 -270 -3 -2 590 -3 590 -65 0 c-36 1 -145 -1 -242 -2z"/>
<path d="M8370 2351 l0 -1368 68 -6 c37 -4 147 -7 245 -7 l177 0 0 551 0 551
218 -6 c119 -4 259 -9 310 -12 l92 -6 0 191 c0 144 -3 193 -12 196 -7 2 -146
8 -308 12 l-295 8 -3 439 -2 439 195 -7 c107 -3 283 -9 390 -12 l195 -7 0 191
0 190 -112 6 c-178 10 -785 26 -980 26 l-178 0 0 -1369z"/>
<path d="M5049 3665 c-236 -45 -396 -157 -483 -339 -57 -118 -71 -179 -70
-301 2 -185 48 -350 136 -487 60 -93 192 -223 384 -379 196 -158 305 -269 352
-357 81 -151 78 -346 -6 -436 -85 -91 -261 -90 -355 2 -53 52 -67 107 -67 264
l0 129 -127 -7 c-71 -4 -175 -9 -233 -13 l-105 -6 2 -140 c4 -236 44 -362 155
-481 72 -76 180 -135 298 -161 104 -23 347 -22 455 1 208 45 365 147 450 293
72 122 106 316 86 481 -33 273 -158 452 -506 728 -312 247 -396 367 -397 564
-1 115 14 165 66 216 50 50 106 68 189 61 76 -7 127 -40 158 -103 18 -38 24
-70 27 -155 l5 -108 186 5 c102 3 206 7 230 10 l44 6 -6 126 c-8 201 -54 321
-166 433 -70 70 -148 114 -256 144 -84 24 -344 29 -446 10z"/>
<path d="M10100 2299 l0 -1375 343 -17 c365 -19 749 -42 860 -52 l67 -6 0 195
0 196 -22 0 c-13 0 -188 9 -390 22 l-368 22 0 1182 0 1181 -127 7 c-71 3 -181
9 -245 13 l-118 6 0 -1374z"/>
<path d="M3205 3563 c-170 -13 -313 -28 -316 -31 -7 -7 -478 -2775 -473 -2780
1 -2 97 4 213 14 l210 18 11 65 c6 36 23 144 38 238 16 95 31 175 33 178 8 7
559 49 565 43 3 -3 22 -108 43 -232 21 -124 40 -228 42 -230 3 -4 461 24 465
28 1 0 -105 612 -235 1358 l-236 1358 -25 -1 c-14 -1 -164 -12 -335 -26z m111
-1200 c59 -370 106 -674 103 -677 -6 -6 -430 -38 -436 -33 -4 4 200 1324 213
1377 4 14 8 21 9 15 2 -5 52 -312 111 -682z"/>
<path d="M11820 2193 c0 -755 1 -1373 3 -1373 14 -2 456 -40 470 -40 16 0 17
72 17 1375 l0 1375 -32 1 c-18 0 -129 8 -245 18 l-213 17 0 -1373z"/>
<path d="M12803 3463 c2 -10 111 -317 241 -682 130 -365 236 -671 236 -681 0
-9 -116 -318 -258 -686 -245 -633 -258 -669 -238 -676 31 -10 393 -41 409 -35
7 3 98 235 202 516 105 280 193 507 197 503 4 -4 90 -254 193 -557 102 -302
187 -550 188 -552 4 -3 491 -63 493 -60 0 1 -115 328 -258 727 -142 399 -259
734 -259 745 0 11 108 301 240 644 150 388 237 627 231 631 -20 12 -411 53
-420 44 -5 -5 -86 -216 -180 -469 -95 -253 -175 -466 -179 -473 -4 -7 -84 216
-181 505 -95 285 -178 521 -182 524 -7 5 -439 50 -472 49 -4 0 -6 -8 -3 -17z"/>
<path d="M942 3340 c-172 -21 -335 -41 -362 -45 l-50 -7 0 -1375 0 -1375 38 6
c47 7 292 38 574 71 251 30 340 51 458 107 68 33 101 57 165 122 89 89 131
158 167 276 l23 75 3 845 c3 930 3 932 -58 1066 -32 71 -113 163 -176 200 -91
54 -149 66 -314 70 -132 3 -201 -3 -468 -36z m448 -373 c19 -12 43 -38 54 -57
21 -35 21 -46 21 -885 l0 -850 -22 -41 c-24 -45 -72 -90 -112 -106 -27 -10
-235 -38 -283 -38 l-28 0 2 988 3 987 90 11 c50 6 124 12 166 13 64 1 81 -3
109 -22z"/>
</g>
</svg>
